<mxfile host="app.diagrams.net" agent="Mozilla/5.0 (Windows NT 10.0; Win64; x64) AppleWebKit/537.36 (KHTML, like Gecko) Chrome/132.0.0.0 Safari/537.36" version="26.0.14">
  <diagram name="Page-1" id="e7e014a7-5840-1c2e-5031-d8a46d1fe8dd">
    <mxGraphModel dx="1687" dy="878" grid="1" gridSize="10" guides="1" tooltips="1" connect="1" arrows="1" fold="1" page="1" pageScale="1" pageWidth="1169" pageHeight="826" background="none" math="0" shadow="0">
      <root>
        <mxCell id="0" />
        <mxCell id="1" parent="0" />
        <mxCell id="3" value="报告服务" style="swimlane;whiteSpace=wrap" parent="1" vertex="1">
          <mxGeometry x="444.5" y="128" width="280" height="890" as="geometry" />
        </mxCell>
        <mxCell id="Cb_IEtHrJs0BhGIr2BkC-54" style="edgeStyle=orthogonalEdgeStyle;rounded=0;orthogonalLoop=1;jettySize=auto;html=1;entryX=0.5;entryY=0;entryDx=0;entryDy=0;" edge="1" parent="3" source="Cb_IEtHrJs0BhGIr2BkC-50" target="Cb_IEtHrJs0BhGIr2BkC-51">
          <mxGeometry relative="1" as="geometry" />
        </mxCell>
        <mxCell id="Cb_IEtHrJs0BhGIr2BkC-50" value="测试(带参)&lt;br&gt;uuid&lt;br&gt;pnumber&amp;nbsp; ...." style="whiteSpace=wrap;html=1;" vertex="1" parent="3">
          <mxGeometry x="75.5" y="62" width="120" height="60" as="geometry" />
        </mxCell>
        <mxCell id="Cb_IEtHrJs0BhGIr2BkC-51" value="提交测试(后台会用 uuid 存一条记录)" style="whiteSpace=wrap;html=1;" vertex="1" parent="3">
          <mxGeometry x="75.5" y="172" width="120" height="60" as="geometry" />
        </mxCell>
        <mxCell id="Cb_IEtHrJs0BhGIr2BkC-63" style="edgeStyle=orthogonalEdgeStyle;rounded=0;orthogonalLoop=1;jettySize=auto;html=1;entryX=0;entryY=0.5;entryDx=0;entryDy=0;" edge="1" parent="3">
          <mxGeometry relative="1" as="geometry">
            <mxPoint x="-84.5" y="292" as="sourcePoint" />
            <mxPoint x="635.5" y="292" as="targetPoint" />
          </mxGeometry>
        </mxCell>
        <mxCell id="Cb_IEtHrJs0BhGIr2BkC-70" value="订单完成" style="whiteSpace=wrap;html=1;" vertex="1" parent="3">
          <mxGeometry x="75.5" y="322" width="120" height="60" as="geometry" />
        </mxCell>
        <mxCell id="2" value="网站" style="swimlane;whiteSpace=wrap" parent="3" vertex="1">
          <mxGeometry x="-290" width="290" height="890" as="geometry" />
        </mxCell>
        <mxCell id="12" value="" style="edgeStyle=elbowEdgeStyle;elbow=horizontal;strokeColor=#FF0000;endArrow=open;endFill=1;rounded=0" parent="2" source="10" edge="1">
          <mxGeometry width="100" height="100" relative="1" as="geometry">
            <mxPoint x="160" y="290" as="sourcePoint" />
            <mxPoint x="60" y="135" as="targetPoint" />
            <Array as="points">
              <mxPoint x="30" y="250" />
            </Array>
          </mxGeometry>
        </mxCell>
        <mxCell id="Cb_IEtHrJs0BhGIr2BkC-52" style="edgeStyle=orthogonalEdgeStyle;rounded=0;orthogonalLoop=1;jettySize=auto;html=1;" edge="1" parent="2" source="Cb_IEtHrJs0BhGIr2BkC-49">
          <mxGeometry relative="1" as="geometry">
            <mxPoint x="345.5" y="92" as="targetPoint" />
          </mxGeometry>
        </mxCell>
        <mxCell id="Cb_IEtHrJs0BhGIr2BkC-49" value="门户网站入口(产品详情页面)" style="whiteSpace=wrap;html=1;" vertex="1" parent="2">
          <mxGeometry x="75.5" y="62" width="120" height="60" as="geometry" />
        </mxCell>
        <mxCell id="Cb_IEtHrJs0BhGIr2BkC-53" value="去测试" style="text;html=1;align=center;verticalAlign=middle;resizable=0;points=[];autosize=1;strokeColor=none;fillColor=none;" vertex="1" parent="2">
          <mxGeometry x="220" y="62" width="60" height="30" as="geometry" />
        </mxCell>
        <mxCell id="Cb_IEtHrJs0BhGIr2BkC-60" style="edgeStyle=orthogonalEdgeStyle;rounded=0;orthogonalLoop=1;jettySize=auto;html=1;" edge="1" parent="2" source="Cb_IEtHrJs0BhGIr2BkC-55">
          <mxGeometry relative="1" as="geometry">
            <mxPoint x="135.5" y="272" as="targetPoint" />
          </mxGeometry>
        </mxCell>
        <mxCell id="Cb_IEtHrJs0BhGIr2BkC-55" value="产品详情页" style="whiteSpace=wrap;html=1;" vertex="1" parent="2">
          <mxGeometry x="75.5" y="172" width="120" height="60" as="geometry" />
        </mxCell>
        <mxCell id="Cb_IEtHrJs0BhGIr2BkC-57" value="测试完成" style="text;html=1;align=center;verticalAlign=middle;resizable=0;points=[];autosize=1;strokeColor=none;fillColor=none;" vertex="1" parent="2">
          <mxGeometry x="220" y="172" width="70" height="30" as="geometry" />
        </mxCell>
        <mxCell id="Cb_IEtHrJs0BhGIr2BkC-59" value="去支付" style="whiteSpace=wrap;html=1;" vertex="1" parent="2">
          <mxGeometry x="75.5" y="282" width="120" height="60" as="geometry" />
        </mxCell>
        <mxCell id="Cb_IEtHrJs0BhGIr2BkC-79" style="edgeStyle=orthogonalEdgeStyle;rounded=0;orthogonalLoop=1;jettySize=auto;html=1;entryX=0.5;entryY=0;entryDx=0;entryDy=0;" edge="1" parent="2" source="Cb_IEtHrJs0BhGIr2BkC-73" target="Cb_IEtHrJs0BhGIr2BkC-78">
          <mxGeometry relative="1" as="geometry" />
        </mxCell>
        <mxCell id="Cb_IEtHrJs0BhGIr2BkC-73" value="关注二维码" style="whiteSpace=wrap;html=1;" vertex="1" parent="2">
          <mxGeometry x="75.5" y="392" width="120" height="60" as="geometry" />
        </mxCell>
        <mxCell id="Cb_IEtHrJs0BhGIr2BkC-82" style="edgeStyle=orthogonalEdgeStyle;rounded=0;orthogonalLoop=1;jettySize=auto;html=1;" edge="1" parent="2" source="Cb_IEtHrJs0BhGIr2BkC-78">
          <mxGeometry relative="1" as="geometry">
            <mxPoint x="935.5" y="542" as="targetPoint" />
          </mxGeometry>
        </mxCell>
        <mxCell id="Cb_IEtHrJs0BhGIr2BkC-78" value="扫码关注" style="whiteSpace=wrap;html=1;" vertex="1" parent="2">
          <mxGeometry x="75.5" y="512" width="120" height="60" as="geometry" />
        </mxCell>
        <mxCell id="Cb_IEtHrJs0BhGIr2BkC-91" value="公众号入口" style="whiteSpace=wrap;html=1;" vertex="1" parent="2">
          <mxGeometry x="75.5" y="698" width="120" height="60" as="geometry" />
        </mxCell>
        <mxCell id="Cb_IEtHrJs0BhGIr2BkC-77" style="edgeStyle=orthogonalEdgeStyle;rounded=0;orthogonalLoop=1;jettySize=auto;html=1;exitX=0;exitY=0.75;exitDx=0;exitDy=0;" edge="1" parent="3">
          <mxGeometry relative="1" as="geometry">
            <mxPoint x="-84.5" y="422" as="targetPoint" />
            <mxPoint x="355.5" y="422" as="sourcePoint" />
          </mxGeometry>
        </mxCell>
        <mxCell id="Cb_IEtHrJs0BhGIr2BkC-85" value="更新记录上存的 uuid （更新为正式用户的标识）" style="whiteSpace=wrap;html=1;" vertex="1" parent="3">
          <mxGeometry x="75.5" y="582" width="120" height="68" as="geometry" />
        </mxCell>
        <mxCell id="Cb_IEtHrJs0BhGIr2BkC-90" value="" style="curved=1;endArrow=classic;html=1;rounded=0;exitX=0.5;exitY=0;exitDx=0;exitDy=0;entryX=1;entryY=0.5;entryDx=0;entryDy=0;fillColor=#f8cecc;strokeColor=#b85450;" edge="1" parent="3" source="Cb_IEtHrJs0BhGIr2BkC-85" target="Cb_IEtHrJs0BhGIr2BkC-51">
          <mxGeometry width="50" height="50" relative="1" as="geometry">
            <mxPoint x="185.5" y="382" as="sourcePoint" />
            <mxPoint x="275.5" y="72" as="targetPoint" />
            <Array as="points">
              <mxPoint x="285.5" y="412" />
              <mxPoint x="405.5" y="172" />
            </Array>
          </mxGeometry>
        </mxCell>
        <mxCell id="4" value="odoo" style="swimlane;whiteSpace=wrap" parent="1" vertex="1">
          <mxGeometry x="724.5" y="128" width="290.5" height="892" as="geometry" />
        </mxCell>
        <mxCell id="Cb_IEtHrJs0BhGIr2BkC-71" style="edgeStyle=orthogonalEdgeStyle;rounded=0;orthogonalLoop=1;jettySize=auto;html=1;" edge="1" parent="4" source="Cb_IEtHrJs0BhGIr2BkC-64">
          <mxGeometry relative="1" as="geometry">
            <mxPoint x="-74.5" y="350" as="targetPoint" />
            <Array as="points">
              <mxPoint x="1" y="352" />
              <mxPoint x="1" y="351" />
            </Array>
          </mxGeometry>
        </mxCell>
        <mxCell id="Cb_IEtHrJs0BhGIr2BkC-64" value="接收回调" style="whiteSpace=wrap;html=1;" vertex="1" parent="4">
          <mxGeometry x="75.5" y="320" width="120" height="160" as="geometry" />
        </mxCell>
        <mxCell id="Cb_IEtHrJs0BhGIr2BkC-65" style="edgeStyle=orthogonalEdgeStyle;rounded=0;orthogonalLoop=1;jettySize=auto;html=1;" edge="1" parent="4">
          <mxGeometry relative="1" as="geometry">
            <mxPoint x="205.5" y="352" as="targetPoint" />
            <mxPoint x="355.5" y="352" as="sourcePoint" />
            <Array as="points">
              <mxPoint x="281" y="352" />
              <mxPoint x="281" y="353" />
            </Array>
          </mxGeometry>
        </mxCell>
        <mxCell id="Cb_IEtHrJs0BhGIr2BkC-69" value="支付完成" style="text;html=1;align=center;verticalAlign=middle;resizable=0;points=[];autosize=1;strokeColor=none;fillColor=none;" vertex="1" parent="4">
          <mxGeometry x="220.5" y="321" width="70" height="30" as="geometry" />
        </mxCell>
        <mxCell id="Cb_IEtHrJs0BhGIr2BkC-72" value="调用创建订单接口&lt;div&gt;并且调用支付完成&lt;/div&gt;&lt;div&gt;的创建订单&lt;/div&gt;" style="text;html=1;align=center;verticalAlign=middle;resizable=0;points=[];autosize=1;strokeColor=none;fillColor=none;" vertex="1" parent="4">
          <mxGeometry x="-54.5" y="299" width="120" height="60" as="geometry" />
        </mxCell>
        <mxCell id="Cb_IEtHrJs0BhGIr2BkC-83" value="接收通知 (临时用户--变更为正式用户)" style="whiteSpace=wrap;html=1;" vertex="1" parent="4">
          <mxGeometry x="75.5" y="572" width="120" height="88" as="geometry" />
        </mxCell>
        <mxCell id="Cb_IEtHrJs0BhGIr2BkC-92" value="我的报告（正式用户的标识）" style="whiteSpace=wrap;html=1;" vertex="1" parent="4">
          <mxGeometry x="75.5" y="698" width="120" height="60" as="geometry" />
        </mxCell>
        <mxCell id="Cb_IEtHrJs0BhGIr2BkC-95" value="" style="curved=1;endArrow=classic;html=1;rounded=0;fillColor=#f8cecc;strokeColor=#b85450;" edge="1" parent="4">
          <mxGeometry width="50" height="50" relative="1" as="geometry">
            <mxPoint x="195.5" y="732" as="sourcePoint" />
            <mxPoint x="-74.5" y="202" as="targetPoint" />
            <Array as="points">
              <mxPoint x="335.5" y="732" />
              <mxPoint x="345.5" y="622" />
              <mxPoint x="135.5" y="162" />
            </Array>
          </mxGeometry>
        </mxCell>
        <mxCell id="Cb_IEtHrJs0BhGIr2BkC-42" value="微信服务" style="swimlane;whiteSpace=wrap" vertex="1" parent="1">
          <mxGeometry x="1015" y="128" width="280" height="892" as="geometry" />
        </mxCell>
        <mxCell id="Cb_IEtHrJs0BhGIr2BkC-61" value="支付服务器" style="whiteSpace=wrap;html=1;" vertex="1" parent="Cb_IEtHrJs0BhGIr2BkC-42">
          <mxGeometry x="75.5" y="282" width="120" height="98" as="geometry" />
        </mxCell>
        <mxCell id="Cb_IEtHrJs0BhGIr2BkC-80" value="消息服务器" style="whiteSpace=wrap;html=1;" vertex="1" parent="Cb_IEtHrJs0BhGIr2BkC-42">
          <mxGeometry x="75.5" y="512" width="120" height="148" as="geometry" />
        </mxCell>
        <mxCell id="Cb_IEtHrJs0BhGIr2BkC-56" style="edgeStyle=orthogonalEdgeStyle;rounded=0;orthogonalLoop=1;jettySize=auto;html=1;" edge="1" parent="1" source="Cb_IEtHrJs0BhGIr2BkC-51">
          <mxGeometry relative="1" as="geometry">
            <mxPoint x="370" y="330" as="targetPoint" />
          </mxGeometry>
        </mxCell>
        <mxCell id="Cb_IEtHrJs0BhGIr2BkC-84" style="edgeStyle=orthogonalEdgeStyle;rounded=0;orthogonalLoop=1;jettySize=auto;html=1;exitX=0;exitY=0.75;exitDx=0;exitDy=0;entryX=0.975;entryY=0.58;entryDx=0;entryDy=0;entryPerimeter=0;" edge="1" parent="1" source="Cb_IEtHrJs0BhGIr2BkC-80" target="Cb_IEtHrJs0BhGIr2BkC-83">
          <mxGeometry relative="1" as="geometry" />
        </mxCell>
        <mxCell id="Cb_IEtHrJs0BhGIr2BkC-88" style="edgeStyle=orthogonalEdgeStyle;rounded=0;orthogonalLoop=1;jettySize=auto;html=1;" edge="1" parent="1" source="Cb_IEtHrJs0BhGIr2BkC-83" target="Cb_IEtHrJs0BhGIr2BkC-85">
          <mxGeometry relative="1" as="geometry" />
        </mxCell>
        <mxCell id="Cb_IEtHrJs0BhGIr2BkC-94" style="edgeStyle=orthogonalEdgeStyle;rounded=0;orthogonalLoop=1;jettySize=auto;html=1;entryX=0;entryY=0.5;entryDx=0;entryDy=0;" edge="1" parent="1" source="Cb_IEtHrJs0BhGIr2BkC-91" target="Cb_IEtHrJs0BhGIr2BkC-92">
          <mxGeometry relative="1" as="geometry" />
        </mxCell>
      </root>
    </mxGraphModel>
  </diagram>
</mxfile>
